<svg id="Bookmark" xmlns="http://www.w3.org/2000/svg" width="30" height="30" viewBox="0 0 30 30">
  <g id="bookmark-2" data-name="bookmark">
    <rect id="Rectangle_228" data-name="Rectangle 228" width="30" height="30" opacity="0"/>
    <path id="Path_204" data-name="Path 204" d="M6.579,27.06a1.381,1.381,0,0,1-1.424-1.332L4.941,6.2A2.9,2.9,0,0,1,5.8,4.028a3.319,3.319,0,0,1,2.249-.961L21.7,3a3.125,3.125,0,0,1,3.176,3.077l.2,19.53a1.317,1.317,0,0,1-.7,1.159,1.51,1.51,0,0,1-1.424,0l-8.118-4.21-7.534,4.3a1.8,1.8,0,0,1-.726.2Zm8.2-7.394a1.67,1.67,0,0,1,.712.16L22.2,23.3,22.032,6.051c0-.266-.185-.453-.3-.44L8.06,5.731c-.114,0-.271.173-.271.44L7.96,23.356l6.1-3.5a1.59,1.59,0,0,1,.726-.187Z"/>
  </g>
</svg>
