<svg xmlns="http://www.w3.org/2000/svg" width="58" height="58" viewBox="0 0 58 58">
    <g transform="translate(-399 -2031)">
        <rect width="58" height="58" fill="#e2ddff" rx="5" transform="translate(399 2031)"/>
        <g>
            <g fill="#5444a5">
                <path d="M25.667 16.573h-5.414l3.067-3.293a1.333 1.333 0 0 0 0-1.88l-5.587-5.147a1.24 1.24 0 0 0-.947-.347 1.333 1.333 0 0 0-.933.413l-2.426 2.668V4.333A1.333 1.333 0 0 0 12.093 3h-7.76A1.333 1.333 0 0 0 3 4.333v17.454A5.213 5.213 0 0 0 8.213 27h17.454A1.333 1.333 0 0 0 27 25.667v-7.76a1.333 1.333 0 0 0-1.333-1.334zM16.893 9.12l3.56 3.32-7.027 7.547V12.84zm-6.133 3.213v4H5.667v-4zm0-6.667v4H5.667v-4zM5.667 21.787V19h5.093v2.787a2.547 2.547 0 1 1-5.093 0zm18.667 2.547H13.013l4.747-5.094h6.573z" transform="translate(413 2045)"/>
            </g>
        </g>
    </g>
</svg>
