<svg xmlns="http://www.w3.org/2000/svg" width="23.995" height="24" viewBox="0 0 23.995 24">
  <path id="calender" d="M402.084,3391a3.067,3.067,0,0,1-3.13-3v-16a3.067,3.067,0,0,1,3.13-3h1.043v-.5a1.566,1.566,0,0,1,3.13,0v.5h3.13v-.5a1.566,1.566,0,0,1,3.13,0v.5h3.13v-.5a1.566,1.566,0,0,1,3.13,0v.5h1.043a3.067,3.067,0,0,1,3.129,3v16a3.067,3.067,0,0,1-3.129,3ZM400,3388a2.047,2.047,0,0,0,2.086,2H419.82a2.047,2.047,0,0,0,2.086-2v-16a2.047,2.047,0,0,0-2.086-2h-1.043v.5a1.566,1.566,0,0,1-3.13,0v-.5h-3.13v.5a1.566,1.566,0,0,1-3.13,0v-.5h-3.13v.5a1.566,1.566,0,0,1-3.13,0v-.5h-1.043a2.047,2.047,0,0,0-2.086,2v2h21.9v1H400Zm16.692-19.5v2a.522.522,0,0,0,1.043,0v-2a.522.522,0,0,0-1.043,0Zm-6.26,0v2a.522.522,0,0,0,1.043,0v-.5h0v-1h0v-.5a.522.522,0,0,0-1.043,0Zm-6.26,2a.522.522,0,0,0,1.043,0v-.5h0v-1h0v-.5a.522.522,0,0,0-1.043,0v2Zm11.476,16.5v-3h3.13v3Zm1.043-1h1.043v-1H416.69Zm-7.3,1v-3h3.13v3Zm1.043-1h1.043v-1h-1.043Zm-7.3,1v-3h3.13v3Zm1.043-1h1.043v-1h-1.043Zm11.476-5v-3h3.13v3Zm1.043-1h1.043v-1H416.69Zm-7.3,1v-3h3.13v3Zm1.043-1h1.043v-1h-1.043Zm-7.3,1v-3h3.13v3Zm1.043-1h1.043v-1h-1.043Z" transform="translate(-398.955 -3366.999)" fill="#f56962"/>
</svg>
