<svg xmlns="http://www.w3.org/2000/svg" width="84" height="84" viewBox="0 0 84 84">
  <g id="Icon" transform="translate(-415 -1038)">
    <g id="Group_554" data-name="Group 554">
      <rect id="Rectangle_255" data-name="Rectangle 255" width="84" height="84" rx="5" transform="translate(415 1038)" fill="#fef3e8"/>
    </g>
    <g id="Group_553" data-name="Group 553">
      <g id="career" transform="translate(410.311 1061.262)">
        <g id="Group_455" data-name="Group 455" transform="translate(27.594)">
          <path id="Path_256" data-name="Path 256" d="M54.034,0,47.5,9.524q-.48-.047-.974-.048a9.586,9.586,0,0,0-5.7,1.839l-2.673-3.9L27.594,22.826h4.169v10.74h1.6a11.5,11.5,0,0,0-.487,3.313v1.113H60.186V36.88a11.591,11.591,0,0,0-1.454-5.613h1.7V15.409H64.6Zm-7.5,11.7A6.418,6.418,0,0,1,53.2,17.813a6.418,6.418,0,0,1-6.672,6.112,6.418,6.418,0,0,1-6.672-6.112A6.418,6.418,0,0,1,46.529,11.7ZM34.192,31.341h0V20.6h-2.2l6.171-9,.951,1.386a7.828,7.828,0,0,0-1.683,4.825,8.254,8.254,0,0,0,4.615,7.251,13.413,13.413,0,0,0-7.757,6.277h-.093Zm8.033,4.426H35.366a10.46,10.46,0,0,1,6.791-8.36l1.433,2.365Zm2.482,0,1.152-5.061H47.2l1.152,5.061Zm2.765-7.286H45.586l-1.045-1.724a12.269,12.269,0,0,1,3.975,0Zm3.361,7.286-1.364-6L50.9,27.407a10.46,10.46,0,0,1,6.791,8.36H50.833ZM58,13.183V29.042h-.837a13.763,13.763,0,0,0-6.149-3.978,8.254,8.254,0,0,0,4.615-7.251A8.385,8.385,0,0,0,49.978,10.1l4.056-5.915,6.171,9H58Z" transform="translate(-27.594)" fill="#f68c20"/>
        </g>
      </g>
    </g>
  </g>
</svg>
