<svg xmlns="http://www.w3.org/2000/svg" width="59" height="59" viewBox="0 0 59 59">
    <g>
        <g fill="#5fd46d">
            <path d="M45.463 13.489h-7.67V9.556A6.475 6.475 0 0 0 31.4 3h-7.67a6.475 6.475 0 0 0-6.39 6.556v3.933H9.67A7.77 7.77 0 0 0 2 21.356v20.977A7.77 7.77 0 0 0 9.67 50.2h35.793a7.77 7.77 0 0 0 7.67-7.867V21.356a7.77 7.77 0 0 0-7.67-7.867zm-10.226 5.244v26.223H19.9V18.733zM22.453 9.556a1.3 1.3 0 0 1 1.278-1.311H31.4a1.3 1.3 0 0 1 1.28 1.311v3.933H22.453zM7.113 42.333V21.356a2.59 2.59 0 0 1 2.557-2.623h5.113v26.223H9.67a2.59 2.59 0 0 1-2.557-2.623zm40.907 0a2.59 2.59 0 0 1-2.557 2.622H40.35V18.733h5.113a2.59 2.59 0 0 1 2.557 2.622z" transform="translate(1.433 2.4)"/>
        </g>
    </g>
</svg>
