<svg id="Icon" xmlns="http://www.w3.org/2000/svg" width="24" height="24" viewBox="0 0 24 24">
  <g id="Layer_2" data-name="Layer 2">
    <g id="layout">
      <rect id="Rectangle_93" data-name="Rectangle 93" width="24" height="24" fill="#43c8b1" opacity="0"/>
      <path id="Path_72" data-name="Path 72" d="M18,3H6A3,3,0,0,0,3,6V18a3,3,0,0,0,3,3H18a3,3,0,0,0,3-3V6A3,3,0,0,0,18,3ZM6,5H18a1,1,0,0,1,1,1V8H5V6A1,1,0,0,1,6,5ZM5,18V10h6v9H6A1,1,0,0,1,5,18Zm13,1H13V10h6v8A1,1,0,0,1,18,19Z" fill="#43c8b1"/>
    </g>
  </g>
</svg>
