<svg xmlns="http://www.w3.org/2000/svg" width="58" height="58" viewBox="0 0 58 58">
    <g transform="translate(-399 -2031)">
        <rect width="58" height="58" fill="#fff" rx="5" transform="translate(399 2031)"/>
        <g>
            <g fill="#ef8543">
                <path d="M24.1 3H5.9A3.951 3.951 0 0 0 2 7v10.667a3.951 3.951 0 0 0 3.9 4h7.8v2.667H8.5A1.334 1.334 0 0 0 8.5 27h13a1.334 1.334 0 0 0 0-2.667h-5.2v-2.666h7.8a3.951 3.951 0 0 0 3.9-4V7a3.951 3.951 0 0 0-3.9-4zm1.3 14.667A1.317 1.317 0 0 1 24.1 19H5.9a1.317 1.317 0 0 1-1.3-1.333V7a1.317 1.317 0 0 1 1.3-1.333h18.2A1.317 1.317 0 0 1 25.4 7z" transform="translate(413 2045)"/>
            </g>
        </g>
    </g>
</svg>
