<svg xmlns="http://www.w3.org/2000/svg" width="58" height="58" viewBox="0 0 58 58">
    <g transform="translate(-399 -2031)">
        <rect width="58" height="58" fill="#fae0d0" rx="5" transform="translate(399 2031)"/>
        <g>
            <g fill="#ef8543">
                <path d="M14.328 24.957a1.233 1.233 0 0 1-.875-.357l-9.579-9.592A6.45 6.45 0 1 1 13 5.886l1.331 1.331 1.331-1.331a6.45 6.45 0 1 1 9.122 9.122L15.2 24.6a1.233 1.233 0 0 1-.875.357zM8.435 6.465a3.945 3.945 0 0 0-2.81 1.159 3.994 3.994 0 0 0 0 5.634l8.7 8.716 8.7-8.716a3.994 3.994 0 0 0 0-5.634 4.093 4.093 0 0 0-5.621 0L15.2 9.843a1.233 1.233 0 0 1-1.751 0l-2.203-2.219a3.945 3.945 0 0 0-2.811-1.159z" transform="translate(413.207 2045.207) translate(.465 .931)"/>
            </g>
        </g>
    </g>
</svg>
