<svg xmlns="http://www.w3.org/2000/svg" width="22.966" height="28" viewBox="0 0 22.966 28">
    <defs>
        <style>
            .cls-1{fill:#fff}
        </style>
    </defs>
    <g id="company" transform="translate(-46.022)">
        <path id="Path_258" d="M53.636 139.507c-4.167-.024-7.614-8.531-7.614-12.863 0-7.077 5.309-8.626 7.355-8.626a8.463 8.463 0 0 1 2.775.682 6.2 6.2 0 0 0 1.585.454 4.931 4.931 0 0 0 1.137-.368 9.11 9.11 0 0 1 3.426-.828h.008a7.023 7.023 0 0 1 5.877 2.968l.429.644-.617.465a5.19 5.19 0 0 0-2.489 4.28 4.831 4.831 0 0 0 2.7 4.466c.386.232.786.472.786 1 0 .342-2.73 7.687-6.695 7.687a5.384 5.384 0 0 1-2.261-.549 4.584 4.584 0 0 0-2.012-.485 5.176 5.176 0 0 0-1.593.431 7.8 7.8 0 0 1-2.764.645z" class="cls-1" transform="translate(0 -111.507)"/>
        <path id="Path_259" d="M260.415 0c.1 3.723-2.559 6.306-5.218 6.144C254.758 3.173 257.855 0 260.415 0z" class="cls-1" transform="translate(-197.696)"/>
    </g>
</svg>
