<svg xmlns="http://www.w3.org/2000/svg" width="54" height="54" viewBox="0 0 54 54">
    <g>
        <g fill="#ef8543">
            <path d="M44.84 3H9.56A7.826 7.826 0 0 0 2 11.067v21.511a7.826 7.826 0 0 0 7.56 8.067h15.12v5.378H14.6a2.695 2.695 0 0 0 0 5.378h25.2a2.695 2.695 0 0 0 0-5.378H29.72v-5.379h15.12a7.826 7.826 0 0 0 7.56-8.067v-21.51A7.826 7.826 0 0 0 44.84 3zm2.52 29.578a2.609 2.609 0 0 1-2.52 2.689H9.56a2.609 2.609 0 0 1-2.52-2.689V11.067a2.609 2.609 0 0 1 2.52-2.689h35.28a2.609 2.609 0 0 1 2.52 2.689z" transform="translate(-.2 -.2)"/>
        </g>
    </g>
</svg>
