<svg xmlns="http://www.w3.org/2000/svg" width="32" height="32" viewBox="0 0 32 32">
  <g id="locIcon" transform="translate(-0.201 -0.201)">
    <g id="pin">
      <rect id="Rectangle_237" data-name="Rectangle 237" width="32" height="32" transform="translate(0.201 0.201)" fill="#f56962" opacity="0"/>
      <path id="Path_230" data-name="Path 230" d="M16.2,2C9.509,2,4.067,7.018,4,13.247,4,21.029,14.752,29.691,15.209,30.06a1.612,1.612,0,0,0,1.983,0c.534-.369,11.209-9.032,11.209-16.813C28.334,7.017,22.891,2,16.2,2Zm0,25.064c-2.547-2.258-9.15-8.52-9.15-13.817,0-4.706,4.1-8.52,9.15-8.52s9.15,3.815,9.15,8.52C25.351,18.5,18.747,24.806,16.2,27.064Z" transform="translate(0 0)" fill="#f56962"/>
      <path id="Path_231" data-name="Path 231" d="M12,6a3.5,3.5,0,1,0,3.5,3.5A3.5,3.5,0,0,0,12,6Zm0,5a1.5,1.5,0,1,1,1.5-1.5A1.5,1.5,0,0,1,12,11Z" transform="translate(4.201 2.965)" fill="#f56962"/>
    </g>
  </g>
</svg>
