<svg xmlns="http://www.w3.org/2000/svg" width="58" height="58" viewBox="0 0 58 58">
    <defs>
        <style>
            .cls-3{fill:#5444a5}
        </style>
    </defs>
    <g id="icon" transform="translate(-399 -2031)">
        <rect id="Rectangle_31" width="58" height="58" fill="#e2ddff" rx="5" transform="translate(399 2031)"/>
        <g id="Layer_2" transform="translate(413 2045)">
            <g id="cast">
                <path id="Path_32" d="M23.533 3H6.467A3.6 3.6 0 0 0 3 6.707v1.626a1.333 1.333 0 1 0 2.667 0V6.707a.96.96 0 0 1 .8-1.04h17.066a.96.96 0 0 1 .8 1.04v16.586a.96.96 0 0 1-.8 1.04h-1.867a1.333 1.333 0 0 0 0 2.667h1.867A3.6 3.6 0 0 0 27 23.293V6.707A3.6 3.6 0 0 0 23.533 3z" class="cls-3"/>
                <path id="Path_33" d="M3.86 14a1.01 1.01 0 1 0 .28 2 2.49 2.49 0 0 1 2.12.72 2.52 2.52 0 0 1 .51 2.84 1 1 0 0 0 .48 1.33 1.06 1.06 0 0 0 .42.09 1 1 0 0 0 .91-.58A4.52 4.52 0 0 0 3.86 14z" class="cls-3" transform="translate(0 6)"/>
                <path id="Path_34" d="M3.86 10.08a1.01 1.01 0 0 0 .28 2 6.035 6.035 0 0 1 6.62 7.66 1 1 0 0 0 .68 1.26.9.9 0 0 0 .28 0 1 1 0 0 0 1-.72 8 8 0 0 0-8.82-10.2z" class="cls-3" transform="translate(0 6)"/>
                <circle id="Ellipse_6" cx="1" cy="1" r="1" class="cls-3" transform="translate(3 22.909)"/>
            </g>
        </g>
    </g>
</svg>
