<svg xmlns="http://www.w3.org/2000/svg" width="200" height="200" viewBox="0 0 200 200">
  <g id="pass" transform="translate(-667 -368)">
    <circle id="Ellipse_51" data-name="Ellipse 51" cx="100" cy="100" r="100" transform="translate(667 368)" fill="#bafcf0"/>
    <g id="prize" transform="translate(715.428 391.112)">
      <g id="Group_484" data-name="Group 484" transform="translate(3.31 31.058)">
        <g id="Group_483" data-name="Group 483" transform="translate(0 0)">
          <path id="Path_324" data-name="Path 324" d="M54.271,112h-9.35a18.212,18.212,0,0,1-10.945-3.683l-12.244-9.29a16.364,16.364,0,0,1,9.7-29.4c6.677-.079,10.47.132,10.628.141l-.418,7.349c-.036,0-3.727-.2-10.123-.129a9,9,0,0,0-5.336,16.175l12.243,9.29a10.807,10.807,0,0,0,6.5,2.185h9.35V112Z" transform="translate(-15.251 -69.611)" fill="#ffd064"/>
        </g>
      </g>
      <g id="Group_486" data-name="Group 486" transform="translate(3.314 45.527)">
        <g id="Group_485" data-name="Group 485">
          <path id="Path_325" data-name="Path 325" d="M33.989,156.624l-12.244-9.29a16.313,16.313,0,0,1-6.362-11.07,16.3,16.3,0,0,0,6.362,14.948l12.244,9.29a18.211,18.211,0,0,0,10.945,3.683h9.35v-3.878h-9.35A18.211,18.211,0,0,1,33.989,156.624Z" transform="translate(-15.267 -136.264)" fill="#ecbe6b"/>
        </g>
      </g>
      <g id="Group_488" data-name="Group 488" transform="translate(68.849 31.058)">
        <g id="Group_487" data-name="Group 487" transform="translate(0 0)">
          <path id="Path_326" data-name="Path 326" d="M317.158,112h9.35a18.212,18.212,0,0,0,10.945-3.683l12.244-9.29a16.364,16.364,0,0,0-9.7-29.4c-6.677-.079-10.47.132-10.628.141l.418,7.349c.036,0,3.727-.2,10.123-.129a9,9,0,0,1,5.336,16.175L333,102.455a10.807,10.807,0,0,1-6.5,2.185h-9.35V112Z" transform="translate(-317.158 -69.611)" fill="#ffd064"/>
        </g>
      </g>
      <g id="Group_490" data-name="Group 490" transform="translate(68.848 34.519)">
        <g id="Group_489" data-name="Group 489">
          <path id="Path_327" data-name="Path 327" d="M355.23,93.017a16.336,16.336,0,0,0-5.405-7.462,16.333,16.333,0,0,1-3.051,23.035l-12.244,9.29a18.211,18.211,0,0,1-10.945,3.683h-6.43v2.921h9.35a18.212,18.212,0,0,0,10.945-3.683l12.244-9.29A16.309,16.309,0,0,0,355.23,93.017Z" transform="translate(-317.156 -85.555)" fill="#ecbe6b"/>
        </g>
      </g>
      <g id="Group_491" data-name="Group 491" transform="translate(42.292 76.48)">
        <path id="Path_328" data-name="Path 328" d="M220.04,302.778l-4.354-3.3a7.5,7.5,0,0,1-2.971-5.979V278.851h-9.862V293.5a7.5,7.5,0,0,1-2.971,5.979l-4.354,3.3a1.777,1.777,0,0,0,1.073,3.193h22.365A1.777,1.777,0,0,0,220.04,302.778Z" transform="translate(-194.822 -278.851)" fill="#ffd064"/>
      </g>
      <g id="Group_492" data-name="Group 492" transform="translate(55.074 76.48)">
        <path id="Path_329" data-name="Path 329" d="M266.14,302.778l-4.354-3.3a7.5,7.5,0,0,1-2.971-5.979V278.851H253.7V293.5a7.5,7.5,0,0,0,2.971,5.979l4.354,3.3a1.777,1.777,0,0,1-1.073,3.193h5.111A1.777,1.777,0,0,0,266.14,302.778Z" transform="translate(-253.704 -278.851)" fill="#ecbe6b"/>
      </g>
      <g id="Group_493" data-name="Group 493" transform="translate(26.013 20.368)">
        <path id="Path_330" data-name="Path 330" d="M177.067,20.368H121.752a1.919,1.919,0,0,0-1.919,1.919V42.094a45.667,45.667,0,0,0,6.82,24.008l5.108,8.265a20.6,20.6,0,0,0,34.941.164l5.236-8.3a45.668,45.668,0,0,0,7.047-24.372V22.287a1.919,1.919,0,0,0-1.919-1.919Z" transform="translate(-119.833 -20.368)" fill="#ffe07d"/>
      </g>
      <g id="Group_494" data-name="Group 494" transform="translate(36.197 20.368)">
        <path id="Path_331" data-name="Path 331" d="M213.8,20.368H204.93V31.077a45.669,45.669,0,0,1-7.047,24.372l-5.236,8.3a20.6,20.6,0,0,1-25.9,7.8l1.744,2.822a20.6,20.6,0,0,0,34.941.164l5.236-8.3a45.668,45.668,0,0,0,7.047-24.372V22.287a1.919,1.919,0,0,0-1.919-1.919Z" transform="translate(-166.746 -20.368)" fill="#ffd064"/>
      </g>
      <g id="Group_516" data-name="Group 516" transform="translate(0 65.345)">
        <g id="Group_495" data-name="Group 495" transform="translate(6.289 15.519)">
          <path id="Path_332" data-name="Path 332" d="M78.254,333.932a52.457,52.457,0,0,1-29.466-9.066A56.171,56.171,0,0,1,29.12,301.408a1.673,1.673,0,1,1,3.048-1.379c8.4,18.563,26.488,30.557,46.087,30.557s37.689-11.994,46.087-30.557a1.673,1.673,0,1,1,3.048,1.379,56.17,56.17,0,0,1-19.669,23.457A52.458,52.458,0,0,1,78.254,333.932Z" transform="translate(-28.971 -299.046)" fill="#0dc183"/>
        </g>
        <g id="Group_496" data-name="Group 496" transform="translate(100.524)">
          <path id="Path_333" data-name="Path 333" d="M471.647,241.514c-1.827,4.323-4.941,7.138-6.956,6.286s-2.168-5.046-.341-9.37c1.323-3.132,5.684-8.112,7.987-10.618a.782.782,0,0,1,1.357.573C473.5,231.784,472.971,238.382,471.647,241.514Z" transform="translate(-463.074 -227.557)" fill="#aad880"/>
        </g>
        <g id="Group_497" data-name="Group 497" transform="translate(100.779 0)">
          <path id="Path_334" data-name="Path 334" d="M473.256,227.813c-.639.7-1.436,1.581-2.283,2.565-.3,3.333-.842,7.306-1.782,9.531-1.287,3.046-3.213,5.34-4.943,6.134a2.582,2.582,0,0,0,1.363,1.758c2.015.851,5.13-1.963,6.956-6.286,1.323-3.132,1.854-9.73,2.046-13.128a.782.782,0,0,0-1.357-.573Z" transform="translate(-464.248 -227.558)" fill="#80cb8e"/>
        </g>
        <g id="Group_498" data-name="Group 498" transform="translate(89.379 11.025)">
          <path id="Path_335" data-name="Path 335" d="M419.214,290.889c.137,4.431-1.426,8.075-3.491,8.139s-3.851-3.476-3.988-7.907c-.1-3.21,1.68-9.2,2.667-12.263a.738.738,0,0,1,1.39-.043c1.175,2.992,3.322,8.864,3.422,12.074Z" transform="translate(-411.731 -278.346)" fill="#aad880"/>
        </g>
        <g id="Group_499" data-name="Group 499" transform="translate(75.497 22.094)">
          <path id="Path_336" data-name="Path 336" d="M356.658,339.567c1.746,4.075,1.622,8.038-.278,8.852s-4.855-1.83-6.6-5.9c-1.265-2.952-1.8-9.182-1.995-12.39a.739.739,0,0,1,1.279-.548C351.25,331.932,355.393,336.614,356.658,339.567Z" transform="translate(-347.783 -329.337)" fill="#aad880"/>
        </g>
        <g id="Group_500" data-name="Group 500" transform="translate(75.497 22.094)">
          <path id="Path_337" data-name="Path 337" d="M356.658,339.566c-1.265-2.952-5.408-7.635-7.595-9.991a.739.739,0,0,0-1.279.548c.056.917.14,2.082.261,3.345,2.042,2.366,4.323,5.265,5.2,7.323,1.223,2.854,1.527,5.652.947,7.353a2.5,2.5,0,0,0,2.183.273C358.279,347.6,358.4,343.641,356.658,339.566Z" transform="translate(-347.783 -329.337)" fill="#80cb8e"/>
        </g>
        <g id="Group_501" data-name="Group 501" transform="translate(89.059 33.87)">
          <path id="Path_338" data-name="Path 338" d="M416.7,391.527c-4.186-1.459-7.028-4.224-6.348-6.176s4.625-2.35,8.811-.89c3.033,1.057,7.991,4.866,10.493,6.884a.738.738,0,0,1-.458,1.314C425.989,392.684,419.737,392.584,416.7,391.527Z" transform="translate(-410.257 -383.581)" fill="#aad880"/>
        </g>
        <g id="Group_502" data-name="Group 502" transform="translate(75.764 43.012)">
          <path id="Path_339" data-name="Path 339" d="M355.459,433.641c-4.186-1.459-7.028-4.224-6.348-6.176s4.625-2.35,8.811-.89c3.033,1.057,7.991,4.866,10.493,6.884a.738.738,0,0,1-.458,1.314C364.743,434.8,358.492,434.7,355.459,433.641Z" transform="translate(-349.011 -425.695)" fill="#aad880"/>
        </g>
        <g id="Group_503" data-name="Group 503" transform="translate(89.058 35.559)">
          <path id="Path_340" data-name="Path 340" d="M429.66,397.437c-1.017-.82-2.439-1.936-3.973-3.043-3.379,0-8.776-.176-11.526-1.135a15.434,15.434,0,0,1-3.772-1.9c-.011.027-.023.053-.033.08-.68,1.951,2.162,4.716,6.348,6.176,3.033,1.057,9.284,1.157,12.5,1.132A.739.739,0,0,0,429.66,397.437Z" transform="translate(-410.255 -391.363)" fill="#80cb8e"/>
        </g>
        <g id="Group_504" data-name="Group 504" transform="translate(75.763 44.701)">
          <path id="Path_341" data-name="Path 341" d="M368.415,439.552c-1.017-.82-2.439-1.936-3.973-3.043-3.379,0-8.776-.176-11.526-1.135a15.431,15.431,0,0,1-3.772-1.9c-.011.027-.023.053-.033.08-.68,1.951,2.162,4.716,6.348,6.176,3.033,1.057,9.284,1.157,12.5,1.132A.739.739,0,0,0,368.415,439.552Z" transform="translate(-349.011 -433.478)" fill="#80cb8e"/>
        </g>
        <g id="Group_505" data-name="Group 505" transform="translate(0)">
          <path id="Path_342" data-name="Path 342" d="M2.048,241.514C3.875,245.837,6.989,248.652,9,247.8s2.168-5.046.341-9.37c-1.323-3.132-5.684-8.112-7.987-10.618A.782.782,0,0,0,0,228.386c.192,3.4.722,10,2.046,13.128Z" transform="translate(-0.001 -227.557)" fill="#aad880"/>
        </g>
        <g id="Group_506" data-name="Group 506">
          <path id="Path_343" data-name="Path 343" d="M9.345,238.43c-1.323-3.132-5.684-8.112-7.987-10.618A.782.782,0,0,0,0,228.386c.053.947.133,2.142.249,3.441,2.211,2.567,4.768,5.809,5.727,8.08,1.265,2.994,1.58,5.925.985,7.729A2.484,2.484,0,0,0,9,247.8c2.015-.851,2.168-5.046.341-9.37Z" transform="translate(0 -227.557)" fill="#80cb8e"/>
        </g>
        <g id="Group_507" data-name="Group 507" transform="translate(14.275 11.025)">
          <path id="Path_344" data-name="Path 344" d="M65.766,290.889c-.137,4.431,1.426,8.075,3.491,8.139s3.851-3.476,3.988-7.907c.1-3.21-1.68-9.2-2.667-12.263a.738.738,0,0,0-1.39-.043c-1.175,2.992-3.322,8.864-3.422,12.074Z" transform="translate(-65.757 -278.346)" fill="#aad880"/>
        </g>
        <g id="Group_508" data-name="Group 508" transform="translate(91.04 11.025)">
          <path id="Path_345" data-name="Path 345" d="M425.206,290.89c-.1-3.21-2.246-9.082-3.421-12.074a.739.739,0,0,0-1.391.043c-.291.9-.65,2.056-1.01,3.32,1.036,2.947,2.1,6.475,2.168,8.712.094,3.049-.616,5.726-1.742,7.119a2.472,2.472,0,0,0,1.9,1.02c2.066-.064,3.629-3.708,3.491-8.139Z" transform="translate(-419.384 -278.347)" fill="#80cb8e"/>
        </g>
        <g id="Group_509" data-name="Group 509" transform="translate(16.025 11.025)">
          <path id="Path_346" data-name="Path 346" d="M76.89,278.858a.739.739,0,0,0-1.391-.043c-.356.907-.8,2.08-1.253,3.363.862,3.028,1.728,6.678,1.657,8.943-.092,2.968-.924,5.534-2.084,6.888a2.4,2.4,0,0,0,1.749,1.02c2.065.064,3.851-3.476,3.988-7.907C79.657,287.911,77.878,281.918,76.89,278.858Z" transform="translate(-73.82 -278.346)" fill="#80cb8e"/>
        </g>
        <g id="Group_510" data-name="Group 510" transform="translate(25.541 22.094)">
          <path id="Path_347" data-name="Path 347" d="M118.89,339.567c-1.746,4.075-1.622,8.038.278,8.852s4.855-1.83,6.6-5.9c1.265-2.952,1.8-9.182,1.995-12.39a.739.739,0,0,0-1.279-.548C124.3,331.932,120.155,336.614,118.89,339.567Z" transform="translate(-117.657 -329.337)" fill="#aad880"/>
        </g>
        <g id="Group_511" data-name="Group 511" transform="translate(25.75 22.094)">
          <path id="Path_348" data-name="Path 348" d="M127.236,329.575c-.682.735-1.555,1.7-2.471,2.762a34.557,34.557,0,0,1-1.7,8.687c-1.168,2.725-2.876,4.808-4.448,5.647a2.482,2.482,0,0,0,1.3,1.747c1.9.814,4.855-1.83,6.6-5.9,1.265-2.952,1.8-9.182,1.995-12.39A.738.738,0,0,0,127.236,329.575Z" transform="translate(-118.618 -329.337)" fill="#80cb8e"/>
        </g>
        <g id="Group_512" data-name="Group 512" transform="translate(2.405 33.87)">
          <path id="Path_349" data-name="Path 349" d="M24.312,391.527c4.186-1.459,7.028-4.224,6.348-6.176s-4.625-2.35-8.811-.89c-3.033,1.057-7.991,4.866-10.493,6.884a.739.739,0,0,0,.458,1.314c3.215.025,9.466-.074,12.5-1.132Z" transform="translate(-11.079 -383.581)" fill="#aad880"/>
        </g>
        <g id="Group_513" data-name="Group 513" transform="translate(15.7 43.012)">
          <path id="Path_350" data-name="Path 350" d="M85.558,433.641c4.186-1.459,7.028-4.224,6.348-6.176s-4.625-2.35-8.811-.89c-3.033,1.057-7.991,4.866-10.493,6.884a.738.738,0,0,0,.458,1.314C76.274,434.8,82.525,434.7,85.558,433.641Z" transform="translate(-72.325 -425.695)" fill="#aad880"/>
        </g>
        <g id="Group_514" data-name="Group 514" transform="translate(2.405 34.045)">
          <path id="Path_351" data-name="Path 351" d="M30.661,385.983a2.841,2.841,0,0,0-2.27-1.594c-.643,1.7-3.063,3.592-6.278,4.712a33.488,33.488,0,0,1-8.47,1.083c-.871.663-1.657,1.284-2.287,1.792a.738.738,0,0,0,.458,1.314c3.215.025,9.466-.075,12.5-1.132C28.5,390.7,31.341,387.935,30.661,385.983Z" transform="translate(-11.08 -384.389)" fill="#80cb8e"/>
        </g>
        <g id="Group_515" data-name="Group 515" transform="translate(15.7 43.187)">
          <path id="Path_352" data-name="Path 352" d="M91.906,428.1a2.841,2.841,0,0,0-2.27-1.594c-.643,1.7-3.063,3.592-6.278,4.712a33.489,33.489,0,0,1-8.47,1.083c-.871.662-1.657,1.284-2.287,1.792a.738.738,0,0,0,.458,1.314c3.215.025,9.466-.075,12.5-1.132C89.744,432.814,92.586,430.049,91.906,428.1Z" transform="translate(-72.325 -426.504)" fill="#80cb8e"/>
        </g>
      </g>
      <g id="Group_517" data-name="Group 517" transform="translate(42.557 35.858)">
        <circle id="Ellipse_53" data-name="Ellipse 53" cx="12.516" cy="12.516" r="12.516" transform="translate(0 0)" fill="#ecbe6b"/>
      </g>
      <g id="Group_518" data-name="Group 518" transform="translate(43.458 36.758)">
        <path id="Path_353" data-name="Path 353" d="M216.468,95.87a12.516,12.516,0,0,1-16.276,16.276A12.516,12.516,0,1,0,216.468,95.87Z" transform="translate(-200.192 -95.87)" fill="#eab14d"/>
      </g>
      <g id="Group_519" data-name="Group 519" transform="translate(48.965 42.352)">
        <path id="Path_354" data-name="Path 354" d="M232.585,122.1l1.311,2.655a.818.818,0,0,0,.616.447l2.93.426a.818.818,0,0,1,.453,1.395l-2.12,2.067a.817.817,0,0,0-.235.724l.5,2.918a.818.818,0,0,1-1.186.862l-2.621-1.378a.817.817,0,0,0-.761,0l-2.621,1.378a.817.817,0,0,1-1.186-.862l.5-2.918a.817.817,0,0,0-.235-.724l-2.12-2.067a.818.818,0,0,1,.453-1.395l2.93-.426a.818.818,0,0,0,.616-.447l1.311-2.655A.817.817,0,0,1,232.585,122.1Z" transform="translate(-225.563 -121.64)" fill="#ffe07d"/>
      </g>
      <g id="Group_521" data-name="Group 521" transform="translate(56.562 46.181)">
        <g id="Group_520" data-name="Group 520">
          <path id="Path_355" data-name="Path 355" d="M265.3,140.827a.818.818,0,0,0-.453-1.395l-1.068-.155-2.847,2.776a1.21,1.21,0,0,0-.348,1.072l.64,3.728,1.037.545a.818.818,0,0,0,1.186-.862l-.5-2.918a.817.817,0,0,1,.235-.724Z" transform="translate(-260.561 -139.277)" fill="#ffd064"/>
        </g>
      </g>
      <g id="Group_522" data-name="Group 522" transform="translate(37.492 103.599)">
        <path id="Path_356" data-name="Path 356" d="M207.049,422.851H174.57a1.858,1.858,0,0,1-1.858-1.858V405.638a1.858,1.858,0,0,1,1.858-1.858h32.479a1.858,1.858,0,0,1,1.858,1.858v15.355A1.858,1.858,0,0,1,207.049,422.851Z" transform="translate(-172.712 -403.78)" fill="#407093"/>
      </g>
      <g id="Group_523" data-name="Group 523" transform="translate(37.492 103.599)">
        <path id="Path_357" data-name="Path 357" d="M207.054,403.779h-3.519v11.847a1.853,1.853,0,0,1-1.853,1.853h-28.97V421a1.853,1.853,0,0,0,1.853,1.853h32.489A1.853,1.853,0,0,0,208.906,421V405.632A1.853,1.853,0,0,0,207.054,403.779Z" transform="translate(-172.712 -403.779)" fill="#365e7d"/>
      </g>
    </g>
  </g>
</svg>
