<svg xmlns="http://www.w3.org/2000/svg" width="109" height="251" viewBox="0 0 109 251">
    <defs>
        <clipPath id="clip-path">
            <path fill="none" d="M0 0H109V251H0z"/>
        </clipPath>
        <style>
            .cls-4{fill:#6f7078}
        </style>
    </defs>
    <g id="Pattern" opacity="0.2">
        <g id="Repeat_Grid_1" clip-path="url(#clip-path)">
            <g transform="translate(-1801 -93)">
                <circle id="Ellipse_1" cx="4" cy="4" r="4" class="cls-4" transform="translate(1801 93)"/>
            </g>
            <g transform="translate(-1753 -93)">
                <circle id="Ellipse_1-2" cx="4" cy="4" r="4" class="cls-4" transform="translate(1801 93)"/>
            </g>
            <g transform="translate(-1705 -93)">
                <circle id="Ellipse_1-3" cx="4" cy="4" r="4" class="cls-4" transform="translate(1801 93)"/>
            </g>
            <g transform="translate(-1801 -45)">
                <circle id="Ellipse_1-4" cx="4" cy="4" r="4" class="cls-4" transform="translate(1801 93)"/>
            </g>
            <g transform="translate(-1753 -45)">
                <circle id="Ellipse_1-5" cx="4" cy="4" r="4" class="cls-4" transform="translate(1801 93)"/>
            </g>
            <g transform="translate(-1705 -45)">
                <circle id="Ellipse_1-6" cx="4" cy="4" r="4" class="cls-4" transform="translate(1801 93)"/>
            </g>
            <g transform="translate(-1801 3)">
                <circle id="Ellipse_1-7" cx="4" cy="4" r="4" class="cls-4" transform="translate(1801 93)"/>
            </g>
            <g transform="translate(-1753 3)">
                <circle id="Ellipse_1-8" cx="4" cy="4" r="4" class="cls-4" transform="translate(1801 93)"/>
            </g>
            <g transform="translate(-1705 3)">
                <circle id="Ellipse_1-9" cx="4" cy="4" r="4" class="cls-4" transform="translate(1801 93)"/>
            </g>
            <g transform="translate(-1801 51)">
                <circle id="Ellipse_1-10" cx="4" cy="4" r="4" class="cls-4" transform="translate(1801 93)"/>
            </g>
            <g transform="translate(-1753 51)">
                <circle id="Ellipse_1-11" cx="4" cy="4" r="4" class="cls-4" transform="translate(1801 93)"/>
            </g>
            <g transform="translate(-1705 51)">
                <circle id="Ellipse_1-12" cx="4" cy="4" r="4" class="cls-4" transform="translate(1801 93)"/>
            </g>
            <g transform="translate(-1801 99)">
                <circle id="Ellipse_1-13" cx="4" cy="4" r="4" class="cls-4" transform="translate(1801 93)"/>
            </g>
            <g transform="translate(-1753 99)">
                <circle id="Ellipse_1-14" cx="4" cy="4" r="4" class="cls-4" transform="translate(1801 93)"/>
            </g>
            <g transform="translate(-1705 99)">
                <circle id="Ellipse_1-15" cx="4" cy="4" r="4" class="cls-4" transform="translate(1801 93)"/>
            </g>
            <g transform="translate(-1801 147)">
                <circle id="Ellipse_1-16" cx="4" cy="4" r="4" class="cls-4" transform="translate(1801 93)"/>
            </g>
            <g transform="translate(-1753 147)">
                <circle id="Ellipse_1-17" cx="4" cy="4" r="4" class="cls-4" transform="translate(1801 93)"/>
            </g>
            <g transform="translate(-1705 147)">
                <circle id="Ellipse_1-18" cx="4" cy="4" r="4" class="cls-4" transform="translate(1801 93)"/>
            </g>
        </g>
    </g>
</svg>
