<svg id="response" xmlns="http://www.w3.org/2000/svg" width="26" height="26" viewBox="0 0 26 26">
  <g id="message-circle">
    <circle id="Ellipse_38" data-name="Ellipse 38" cx="1" cy="1" r="1" transform="translate(12 12)" fill="#91929a"/>
    <circle id="Ellipse_39" data-name="Ellipse 39" cx="1" cy="1" r="1" transform="translate(16.364 12)" fill="#91929a"/>
    <circle id="Ellipse_40" data-name="Ellipse 40" cx="1" cy="1" r="1" transform="translate(7.636 12)" fill="#91929a"/>
    <path id="Path_216" data-name="Path 216" d="M20.771,5.224a11,11,0,0,0-17.9,12.1,1.166,1.166,0,0,1,.1.7L2,22.676A1.093,1.093,0,0,0,3.1,24h.22l4.706-.946a1.385,1.385,0,0,1,.7.1,11,11,0,0,0,12.095-17.9Zm.913,9.193A8.8,8.8,0,0,1,9.589,21.1a3.584,3.584,0,0,0-1.374-.286,3.771,3.771,0,0,0-.616.055L4.5,21.5l.627-3.1a3.4,3.4,0,0,0-.231-1.99,8.8,8.8,0,1,1,16.79-1.99Z" transform="translate(0 0)" fill="#91929a"/>
    <rect id="Rectangle_234" data-name="Rectangle 234" width="26" height="26" fill="#91929a" opacity="0"/>
  </g>
</svg>
