<svg xmlns="http://www.w3.org/2000/svg" width="38" height="38" viewBox="0 0 38 38">
  <g id="RoundClose" transform="translate(-965.5 -336.5)">
    <path id="Close" d="M339.181,1611.073a1.118,1.118,0,1,1,1.1-1.948,16.788,16.788,0,1,0-3.638-2.765,1.118,1.118,0,1,1-1.581,1.582,18.91,18.91,0,1,1,4.122,3.131Zm14.467-9.478-5.147-5.147-5.147,5.147a1.118,1.118,0,0,1-1.581-1.582l5.147-5.147-5.147-5.147a1.118,1.118,0,0,1,1.581-1.582l5.147,5.147,5.147-5.147a1.118,1.118,0,1,1,1.581,1.582l-5.147,5.147,5.147,5.147a1.118,1.118,0,0,1-1.581,1.582Z" transform="translate(636 -1239)" fill="#91929a"/>
  </g>
</svg>
