<svg xmlns="http://www.w3.org/2000/svg" width="23.541" height="29.738" viewBox="0 0 23.541 29.738">
    <defs>
        <style>
            .cls-1{fill:#5f5982}
        </style>
    </defs>
    <g id="android" transform="translate(-53.35)">
        <g id="Group_458" transform="translate(58.306 11.152)">
            <g id="Group_457">
                <path id="Path_260" d="M151.693 192.034H139.3a.62.62 0 0 0-.62.62v9.912a3.1 3.1 0 0 0 2.478 3.036v3.159a1.858 1.858 0 0 0 3.717 0v-3.1h1.239v3.1a1.858 1.858 0 0 0 3.717 0V205.6a3.1 3.1 0 0 0 2.478-3.036v-9.912a.619.619 0 0 0-.616-.618z" class="cls-1" transform="translate(-138.683 -192.034)"/>
            </g>
        </g>
        <g id="Group_460" transform="translate(58.306 -.001)">
            <g id="Group_459">
                <path id="Path_261" d="M148.741 3.3l1.044-2.436a.619.619 0 1 0-1.139-.487L147.6 2.815a6.752 6.752 0 0 0-4.205 0L142.35.377a.619.619 0 1 0-1.137.487l1.044 2.436a6.819 6.819 0 0 0-3.573 5.993.62.62 0 0 0 .62.62h12.39a.62.62 0 0 0 .62-.62 6.821 6.821 0 0 0-3.573-5.993zm-5.72 4.135a.62.62 0 1 1 .62-.62.62.62 0 0 1-.621.62zm4.956 0a.62.62 0 1 1 .62-.62.62.62 0 0 1-.621.62z" class="cls-1" transform="translate(-138.684 .001)"/>
            </g>
        </g>
        <g id="Group_462" transform="translate(73.174 11.152)">
            <g id="Group_461">
                <path id="Path_262" d="M396.542 192.034a1.861 1.861 0 0 0-1.859 1.858v6.2a1.859 1.859 0 1 0 3.717 0v-6.2a1.861 1.861 0 0 0-1.858-1.858z" class="cls-1" transform="translate(-394.684 -192.034)"/>
            </g>
        </g>
        <g id="Group_464" transform="translate(53.35 11.152)">
            <g id="Group_463">
                <path id="Path_263" d="M55.208 192.034a1.861 1.861 0 0 0-1.858 1.858v6.2a1.858 1.858 0 1 0 3.717 0v-6.2a1.861 1.861 0 0 0-1.859-1.858z" class="cls-1" transform="translate(-53.35 -192.034)"/>
            </g>
        </g>
    </g>
</svg>
