<svg xmlns="http://www.w3.org/2000/svg" width="58" height="58" viewBox="0 0 58 58">
    <g transform="translate(-399 -2031)">
        <rect width="58" height="58" fill="#cef6d6" rx="5" transform="translate(399 2031)"/>
        <g>
            <g fill="#5fd46d">
                <path d="M24.1 8.333h-3.9v-2A3.292 3.292 0 0 0 16.95 3h-3.9A3.292 3.292 0 0 0 9.8 6.333v2H5.9a3.951 3.951 0 0 0-3.9 4V23a3.951 3.951 0 0 0 3.9 4h18.2a3.951 3.951 0 0 0 3.9-4V12.333a3.951 3.951 0 0 0-3.9-4zM18.9 11v13.333h-7.8V11zm-6.5-4.667a.658.658 0 0 1 .65-.667h3.9a.658.658 0 0 1 .65.667v2h-5.2zM4.6 23V12.333A1.317 1.317 0 0 1 5.9 11h2.6v13.333H5.9A1.317 1.317 0 0 1 4.6 23zm20.8 0a1.317 1.317 0 0 1-1.3 1.333h-2.6V11h2.6a1.317 1.317 0 0 1 1.3 1.333z" transform="translate(413 2045)"/>
            </g>
        </g>
    </g>
</svg>
