<svg xmlns="http://www.w3.org/2000/svg" width="50.521" height="50.521" viewBox="0 0 50.521 50.521">
    <path fill="#4098ff" d="M46.878 0H3.644A3.644 3.644 0 0 0 0 3.644v43.234a3.644 3.644 0 0 0 3.644 3.644h43.234a3.644 3.644 0 0 0 3.644-3.644V3.644A3.644 3.644 0 0 0 46.878 0zM36.795 19.7q.017.373.017.749c0 7.662-5.832 16.5-16.5 16.5a16.412 16.412 0 0 1-8.887-2.6 11.793 11.793 0 0 0 1.383.08 11.634 11.634 0 0 0 7.2-2.482 5.8 5.8 0 0 1-5.417-4.027 5.779 5.779 0 0 0 2.619-.1 5.8 5.8 0 0 1-4.652-5.683v-.074a5.758 5.758 0 0 0 2.626.725 5.8 5.8 0 0 1-1.8-7.741 16.461 16.461 0 0 0 11.951 6.058 5.8 5.8 0 0 1 9.88-5.288 11.629 11.629 0 0 0 3.692-1.417 5.821 5.821 0 0 1-2.55 3.207 11.564 11.564 0 0 0 3.33-.913 11.783 11.783 0 0 1-2.892 3.006zm0 0"/>
</svg>
