<svg xmlns="http://www.w3.org/2000/svg" width="60" height="60" viewBox="0 0 60 60">
    <g>
        <g fill="#5444a5">
            <path d="M48.333 30.147H37.507l6.133-6.587a2.667 2.667 0 0 0 0-3.76L32.467 9.507a2.48 2.48 0 0 0-1.893-.693 2.667 2.667 0 0 0-1.867.827l-4.853 5.333V5.667A2.667 2.667 0 0 0 21.187 3H5.667A2.667 2.667 0 0 0 3 5.667v34.906A10.427 10.427 0 0 0 13.427 51h34.906A2.667 2.667 0 0 0 51 48.333v-15.52a2.667 2.667 0 0 0-2.667-2.666zM30.787 15.24l7.12 6.64-14.054 15.093V22.68zM18.52 21.667v8H8.333v-8zm0-13.333v8H8.333v-8zM8.333 40.573V35H18.52v5.573a5.093 5.093 0 1 1-10.187 0zm37.333 5.093H23.027L32.52 35.48h13.147z" transform="translate(3 3)"/>
        </g>
    </g>
</svg>
