<svg id="Icon" xmlns="http://www.w3.org/2000/svg" width="24" height="24" viewBox="0 0 24 24">
  <g id="Layer_2" data-name="Layer 2">
    <g id="monitor">
      <rect id="Rectangle_92" data-name="Rectangle 92" width="24" height="24" fill="#43c8b1" opacity="0"/>
      <path id="Path_71" data-name="Path 71" d="M19,3H5A3,3,0,0,0,2,6v8a3,3,0,0,0,3,3h6v2H7a1,1,0,0,0,0,2H17a1,1,0,0,0,0-2H13V17h6a3,3,0,0,0,3-3V6A3,3,0,0,0,19,3Zm1,11a1,1,0,0,1-1,1H5a1,1,0,0,1-1-1V6A1,1,0,0,1,5,5H19a1,1,0,0,1,1,1Z" fill="#43c8b1"/>
    </g>
  </g>
</svg>
