<svg xmlns="http://www.w3.org/2000/svg" width="19.112" height="22" viewBox="0 0 19.112 22">
  <path id="discussion" d="M346.5,574.373l-3.3-2.483a9.487,9.487,0,0,1-7.967-2.772,9.88,9.88,0,0,1,0-13.771,9.441,9.441,0,0,1,13.515,0,9.8,9.8,0,0,1,2.546,9.112.629.629,0,0,1-.022.092,9.777,9.777,0,0,1-.42,1.331l-1.487,3.606a.631.631,0,0,1-.832.346.652.652,0,0,1-.339-.847l1.484-3.6a8.562,8.562,0,0,0,.365-1.161l0-.021a8.5,8.5,0,0,0-2.2-7.945,8.187,8.187,0,0,0-11.719,0,8.567,8.567,0,0,0,0,11.94,8.224,8.224,0,0,0,7.139,2.37.621.621,0,0,1,.475.119l2.858,2.151.628-1.522a.631.631,0,0,1,.832-.346.652.652,0,0,1,.339.847l-.941,2.281a.638.638,0,0,1-.417.373.626.626,0,0,1-.546-.1Zm-8.134-8.206a.518.518,0,0,1,0-1.036h4.374a.518.518,0,0,1,0,1.036Zm0-2.968a.518.518,0,0,1,0-1.036h7.651a.518.518,0,0,1,0,1.036Zm0-2.968a.518.518,0,0,1,0-1.035h7.651a.518.518,0,0,1,0,1.035Z" transform="translate(-332.444 -552.5)" fill="#f68c20"/>
</svg>
