<svg xmlns="http://www.w3.org/2000/svg" width="28" height="28" viewBox="0 0 28 28">
    <g>
        <g fill="#777">
            <path d="M19 3.592A.591.591 0 0 0 18.41 3h-2.955a5.638 5.638 0 0 0-5.909 5.32v3.191H6.591A.591.591 0 0 0 6 12.1v3.073a.591.591 0 0 0 .591.591h2.955v7.919a.591.591 0 0 0 .591.591h3.546a.591.591 0 0 0 .591-.591v-7.918h3.1a.591.591 0 0 0 .579-.437l.851-3.073a.591.591 0 0 0-.567-.745h-3.964V8.32a1.182 1.182 0 0 1 1.182-1.064h2.955a.591.591 0 0 0 .59-.591z" transform="translate(-.183 -.183) translate(1.091 .545)"/>
        </g>
    </g>
</svg>
