<svg xmlns="http://www.w3.org/2000/svg" width="72" height="72" viewBox="0 0 72 72">
  <g id="money" transform="translate(-580 -457)">
    <circle id="Ellipse_56" data-name="Ellipse 56" cx="36" cy="36" r="36" transform="translate(580 457)" fill="#fef8ec"/>
    <g id="money-2" data-name="money" transform="translate(553.077 473.999)">
      <path id="Path_358" data-name="Path 358" d="M212.29,15.657c.648-.566,3.56-6.322,3.56-8.1a28.163,28.163,0,0,1-5.933.593,33.913,33.913,0,0,1-5.933-.593c1.78,2.966.5,6.656,0,8.1Z" transform="translate(-144.572 -6.998)" fill="#fddd88"/>
      <g id="Group_524" data-name="Group 524" transform="translate(48.479 2.337)">
        <path id="Path_359" data-name="Path 359" d="M83.014,52.886c-1.352-7.213-7.713-9.39-8.306-14.238-.1-.858,0-.593,0-.593H71.742c-.231-.623-1.78-3.356-1.78-5.729-2.966.593-6.526.593-8.9-.593a11.642,11.642,0,0,0,2.966,6.322s.1-.265,0,.593c-.593,4.848-6.953,7.026-8.306,14.238-1.78,9.492,6.109,13.645,13.645,13.645S84.794,62.379,83.014,52.886Z" transform="translate(-55.47 -31.732)" fill="#fde6a6"/>
        <path id="Path_360" data-name="Path 360" d="M316.209,117.133h.044S316.219,117.047,316.209,117.133Z" transform="translate(-297.014 -110.811)" fill="#fde6a6"/>
      </g>
      <g id="Group_525" data-name="Group 525" transform="translate(48.479 2.337)">
        <path id="Path_361" data-name="Path 361" d="M171.747,117.133h.044C171.781,117.047,171.747,117.133,171.747,117.133Z" transform="translate(-163.187 -110.811)" fill="#fddd88"/>
        <path id="Path_362" data-name="Path 362" d="M58.436,52.089c.794-4.236,3.316-6.736,5.382-9.059a2.375,2.375,0,0,1,1.775-.8H76.305a7.447,7.447,0,0,1-1.6-3.584,3.386,3.386,0,0,1-.044-.593H66.713a3.9,3.9,0,0,1,.32-.482A13.016,13.016,0,0,1,64.145,32.6a9.621,9.621,0,0,1-3.082-.866,11.642,11.642,0,0,0,2.966,6.322s.1-.265,0,.593c-.593,4.848-6.953,7.026-8.306,14.238-1.78,9.492,6.109,13.645,13.645,13.645a18.741,18.741,0,0,0,6.736-1.2,19.868,19.868,0,0,1-4.023.407C64.545,65.735,56.656,61.582,58.436,52.089Z" transform="translate(-55.47 -31.732)" fill="#fddd88"/>
      </g>
      <path id="Path_363" data-name="Path 363" d="M311.586,94.236h0a1.187,1.187,0,0,0-1.462-.823L301.588,95.8l.882,2.217,8.294-2.321A1.186,1.186,0,0,0,311.586,94.236Z" transform="translate(-234.991 -86.495)" fill="#fd8e61"/>
      <path id="Path_364" data-name="Path 364" d="M333.734,127.562l-8.212-1.887-.554,2.308,8.234,1.892a1.187,1.187,0,0,0,.531-2.313Z" transform="translate(-256.65 -116.423)" fill="#fd7239"/>
      <path id="Path_365" data-name="Path 365" d="M153.156,119.988H140.7a1.187,1.187,0,0,1-1.187-1.187h0a1.187,1.187,0,0,1,1.187-1.187h12.459a1.187,1.187,0,0,1,1.187,1.187h0A1.187,1.187,0,0,1,153.156,119.988Z" transform="translate(-84.845 -108.956)" fill="#fd8e61"/>
      <path id="Path_366" data-name="Path 366" d="M191.844,205.918a.89.89,0,0,0,.89-.89v-.89a3.564,3.564,0,0,0-3.56-3.56V199.1a.89.89,0,0,0-1.78,0V200.6a4,4,0,0,0,.445,7.984h.89a2.225,2.225,0,0,1,0,4.45h-1.335a1.782,1.782,0,0,1-1.78-1.78.89.89,0,0,0-1.78,0,3.564,3.564,0,0,0,3.56,3.56V216.3a.89.89,0,1,0,1.78,0v-1.508a4,4,0,0,0-.445-7.984h-.89a2.225,2.225,0,1,1,0-4.45h1.335a1.782,1.782,0,0,1,1.78,1.78v.89A.89.89,0,0,0,191.844,205.918Z" transform="translate(-125.907 -183.614)" fill="#fff"/>
      <path id="Path_367" data-name="Path 367" d="M309.936,106.243h0a1.187,1.187,0,0,1-1.187-1.187v-2.373a1.187,1.187,0,0,1,1.187-1.187h0a1.187,1.187,0,0,1,1.187,1.187v2.373A1.187,1.187,0,0,1,309.936,106.243Z" transform="translate(-241.625 -94.025)" fill="#fd8e61"/>
      <path id="Path_368" data-name="Path 368" d="M78.3,11.37a1.731,1.731,0,0,0-1.087-.773l-2.389-.549,1.1-.309a1.743,1.743,0,1,0-.939-3.356l-5.144,1.44a1.754,1.754,0,0,0-.554-.607c1.044-1.943,2.548-5.24,2.548-6.658a.562.562,0,0,0-.666-.545,27.588,27.588,0,0,1-5.817.582A33.55,33.55,0,0,1,59.528.013a.561.561,0,0,0-.593.83,5.768,5.768,0,0,1,.715,1.908,11.525,11.525,0,0,1-5.328-.912.561.561,0,0,0-.8.589A12.052,12.052,0,0,0,55.873,8.1h-.021a1.743,1.743,0,0,0-.228,3.47,20.84,20.84,0,0,1-2.445,3.069c-1.986,2.207-4.236,4.708-4.994,8.746a12.946,12.946,0,0,0,.036,5.374,9.954,9.954,0,0,0,2.041,4.1,12.568,12.568,0,0,0,5.387,3.666,20.08,20.08,0,0,0,13.456,0,12.568,12.568,0,0,0,5.387-3.666,9.954,9.954,0,0,0,2.041-4.1,12.948,12.948,0,0,0,.036-5.374c-.757-4.038-3.008-6.54-4.993-8.746-.674-.749-1.315-1.463-1.853-2.188l6.7,1.54A1.743,1.743,0,0,0,78.3,11.37ZM75.283,7.454a.63.63,0,1,1,.34,1.214L72.634,9.5a.553.553,0,0,0-.07.025l-2.51-.577V8.917Zm-6.972.575a.631.631,0,0,1,.63.63v2.373a.63.63,0,1,1-1.261,0V8.659A.631.631,0,0,1,68.311,8.029ZM60.389,1.3a37.458,37.458,0,0,0,4.95.408,28.09,28.09,0,0,0,5.277-.457,28.816,28.816,0,0,1-2.436,5.673A1.746,1.746,0,0,0,66.66,8.1H65.115L65,7.854A12.948,12.948,0,0,1,63.528,2.93a.562.562,0,0,0-.665-.545,19.627,19.627,0,0,1-2.1.3A7.172,7.172,0,0,0,60.389,1.3ZM59.013,8.1H57.292a.569.569,0,0,0-.041-.057,10.643,10.643,0,0,1-2.431-4.8,14.064,14.064,0,0,0,4.948.62l1.1-.07c.52-.048,1.047-.116,1.579-.206A14.861,14.861,0,0,0,63.887,8.1H59.013Zm16.463,15.49c.644,3.434.025,6.315-1.84,8.562-2.3,2.771-6.508,4.425-11.259,4.425s-8.959-1.654-11.259-4.425c-1.865-2.247-2.484-5.127-1.84-8.562.7-3.732,2.839-6.11,4.727-8.207a18.234,18.234,0,0,0,2.879-3.8h1.358a.556.556,0,1,0,0-1.112H55.852a.63.63,0,0,1,0-1.261H66.568v1.261H60.895a.556.556,0,1,0,0,1.112h5.765a1.743,1.743,0,0,0,1.912,1.167,27.055,27.055,0,0,0,2.178,2.631C72.637,17.484,74.777,19.862,75.477,23.593Zm1.956-11.157a.631.631,0,0,1-.756.473l-6.659-1.53a1.746,1.746,0,0,0,.035-.348v-.938l6.906,1.587A.636.636,0,0,1,77.433,12.437Z" transform="translate(0 0)"/>
      <path id="Path_369" data-name="Path 369" d="M182.729,193.06V192.1a1.446,1.446,0,0,0-2.892,0v1.038a4.561,4.561,0,0,0,1,9.01h.89a1.669,1.669,0,0,1,0,3.337h-1.335a1.225,1.225,0,0,1-1.224-1.224,1.446,1.446,0,1,0-2.892,0,4.122,4.122,0,0,0,3.56,4.078v.964a1.446,1.446,0,0,0,2.892,0v-1.038a4.561,4.561,0,0,0-1-9.01h-.89a1.669,1.669,0,0,1,0-3.337h1.335a1.225,1.225,0,0,1,1.224,1.224v.89a1.446,1.446,0,1,0,2.892,0v-.89A4.122,4.122,0,0,0,182.729,193.06Zm2.447,4.968a.334.334,0,1,1-.667,0v-.89a2.339,2.339,0,0,0-2.336-2.336h-1.335a2.781,2.781,0,1,0,0,5.562h.89a3.448,3.448,0,0,1,.384,6.875.556.556,0,0,0-.495.553V209.3a.334.334,0,0,1-.667,0v-1.483a.556.556,0,0,0-.556-.556,3.007,3.007,0,0,1-3-3,.334.334,0,1,1,.667,0,2.339,2.339,0,0,0,2.336,2.336h1.335a2.781,2.781,0,0,0,0-5.562h-.89a3.448,3.448,0,0,1-.384-6.875.556.556,0,0,0,.495-.553V192.1a.334.334,0,1,1,.667,0v1.483a.556.556,0,0,0,.556.556,3.007,3.007,0,0,1,3,3Z" transform="translate(-118.905 -176.614)"/>
    </g>
  </g>
</svg>
