<svg xmlns="http://www.w3.org/2000/svg" id="monitor" width="45.6" height="48" viewBox="0 0 45.6 48">
    <defs>
        <style>
            .cls-1{fill:#18afed}
        </style>
    </defs>
    <g id="Group_3">
        <g id="Group_2">
            <path id="Path_38" d="M45.6 4.219A4.122 4.122 0 0 0 41.592 0H4.008A4.122 4.122 0 0 0 0 4.219v28.312a4.122 4.122 0 0 0 4.008 4.219h12.023v2.95a6.964 6.964 0 0 0-5.344 6.89A1.372 1.372 0 0 0 12.023 48H33.59c6.624-.008 12.01-5.682 12.01-12.656a13.367 13.367 0 0 0-.12-1.786 4.428 4.428 0 0 0 .12-1.027zM4.008 33.938a1.374 1.374 0 0 1-1.336-1.406v-1.416h19.569a13.2 13.2 0 0 0-.613 2.822zm18.233 5.625H18.7V36.75h2.925a13.113 13.113 0 0 0 .616 2.813zm-8.653 5.625a4.034 4.034 0 0 1 3.779-2.812h6.217a12.547 12.547 0 0 0 2.444 2.813zm19.988 0a9.618 9.618 0 0 1-9.352-9.844 9.618 9.618 0 0 1 9.353-9.844 9.618 9.618 0 0 1 9.352 9.844 9.618 9.618 0 0 1-9.352 9.844zM42.928 27.4a11.664 11.664 0 0 0-19.344.914H2.672V4.219a1.374 1.374 0 0 1 1.336-1.406h37.584a1.374 1.374 0 0 1 1.336 1.406z" class="cls-1"/>
        </g>
    </g>
    <g id="Group_5" transform="translate(4.522 6.054)">
        <g id="Group_4">
            <path id="Path_39" d="M75.611 63.991c-.127-.075.785.476-6.746-4.09a1.356 1.356 0 0 0-1.4 0l-6.788 4.089A1.362 1.362 0 0 0 60 65.16v8.2a1.356 1.356 0 0 0 .644 1.154l6.783 4.186a1.356 1.356 0 0 0 1.426 0l6.782-4.189a1.357 1.357 0 0 0 .644-1.154v-8.2a1.369 1.369 0 0 0-.668-1.166zm-8.828 11.123L62.714 72.6v-5.035l4.069 2.459zm1.356-7.441l-4.156-2.512 4.177-2.516 4.14 2.513zm5.427 4.927L69.5 75.114v-5.09l4.069-2.459z" class="cls-1" transform="translate(-60.001 -59.705)"/>
        </g>
    </g>
    <g id="Group_7" transform="translate(30.142 7.947)">
        <g id="Group_6">
            <path id="Path_40" d="M339.53 91h-6.024a1.506 1.506 0 1 0 0 3.012h6.024a1.506 1.506 0 1 0 0-3.012z" class="cls-1" transform="translate(-332 -91)"/>
        </g>
    </g>
    <g id="Group_9" transform="translate(30.142 13.845)">
        <g id="Group_8">
            <path id="Path_41" d="M339.53 151h-6.024a1.506 1.506 0 1 0 0 3.012h6.024a1.506 1.506 0 1 0 0-3.012z" class="cls-1" transform="translate(-332 -151)"/>
        </g>
    </g>
    <g id="Group_11" transform="translate(30.142 35.542)">
        <g id="Group_10">
            <path id="Path_42" d="M336.518 332a4.523 4.523 0 0 0-4.518 4.518v.06a4.518 4.518 0 1 0 4.518-4.578zm0 6.024a1.508 1.508 0 0 1-1.506-1.5v-.006a1.506 1.506 0 1 1 1.506 1.508z" class="cls-1" transform="translate(-332 -332)"/>
        </g>
    </g>
</svg>
