<svg xmlns="http://www.w3.org/2000/svg" width="893.186" height="724" viewBox="0 0 893.186 724">
  <g id="notfoundimage" transform="translate(-142.814 -65.5)">
    <path id="Path_283" data-name="Path 283" d="M996.816,598.243l27.929-80.5a65.154,65.154,0,0,0-16.126-68.056l-.79-.766a81.377,81.377,0,0,1-24.046-68.186l10.477-86.1a81.406,81.406,0,0,0-70.975-90.639c-2.279-.277-4.559-.457-6.854-.541l-33.579-1.231-68.527-65.413a76.518,76.518,0,0,0-87.055-13.09l-77.6,38.8A81.4,81.4,0,0,1,609.1,171l-62.985-3.23a67.94,67.94,0,0,0-70.072,54.391L465.484,274.4a81.4,81.4,0,0,0-1.412,10.4l-9.9,140.451a53.723,53.723,0,0,1-5.124,19.4l-27.228,56.931a81.4,81.4,0,0,0-5.023,56.813l11.016,39.847Z" transform="translate(-51.173 -9.324)" fill="#feefee" fill-rule="evenodd"/>
    <path id="Path_284" data-name="Path 284" d="M410.823,708.5,337.8,787.771a57.8,57.8,0,0,0,39.887,96.9l541.729,24.6a57.8,57.8,0,0,0,60.36-55.115c.041-.873.057-1.748.057-2.622V708.5Z" transform="translate(-34.185 -119.824)" fill="#feefee" fill-rule="evenodd"/>
    <g id="Group_468" data-name="Group 468" transform="translate(462.111 65.5)">
      <path id="Path_285" data-name="Path 285" d="M588.479,327.617V65.5H566.5V338.606A10.989,10.989,0,0,0,577.489,349.6H756.755a70.412,70.412,0,0,1,36.318,10.089l41.029,24.7a92.391,92.391,0,0,0,47.654,13.238H1094.8V375.644H881.756a70.412,70.412,0,0,1-36.318-10.089l-41.029-24.7a92.392,92.392,0,0,0-47.654-13.238Z" transform="translate(-541.672 -65.5)" fill="#ff8484"/>
      <path id="Path_286" data-name="Path 286" d="M992.669,383.08h117.22v39.887H992.669ZM536,335.052H653.22V374.94H536Zm18.316-94.834V140.5h49.249L594.2,240.218Zm233.626,86.694,94.427,44.772v39.887Q878.3,427.11,848.993,424.6t-89.95-23.607Z" transform="translate(-536 -79.448)" fill="#de6262" fill-rule="evenodd"/>
    </g>
    <path id="Path_287" data-name="Path 287" d="M666.864,415.268,396.607,156,373,490.158l288.573-51.284Z" transform="translate(-43.024 -16.831)" fill="#ffeecd" fill-rule="evenodd"/>
    <g id="Group_469" data-name="Group 469" transform="translate(143 117.259)">
      <path id="Path_288" data-name="Path 288" d="M343.625,485.256c57.061-5.016,96.38-88.762,87.822-187.05S369.694,124.3,312.633,129.319s-96.38,88.762-87.822,187.05S286.564,490.272,343.625,485.256Z" transform="translate(-157.997 -129.083)" fill="#f56962"/>
      <path id="Path_289" data-name="Path 289" d="M424.653,433.278v14.652H336.738V433.278H295.223V417H467.8v16.281Zm-1.628,0H338.366V446.3h84.659Zm-86.287-1.628H380.7V418.626H296.851V431.65Zm45.586,0h83.845V418.626H382.324ZM317.2,201.281H274.058V214.3H357.9V201.281Zm0-1.628h42.329v16.281H186.143V199.652H230.1V185h87.1ZM272.43,214.3V201.281H187.771V214.3Zm43.143-14.652V186.628H231.729v13.024h83.845Zm-87.1,38.259h87.1v16.281H143V237.912Zm0,14.652V239.54H144.628v13.024Zm1.628,0h83.845V239.54H230.1Z" transform="translate(-143 -139.482)" fill="#fff"/>
      <path id="Path_290" data-name="Path 290" d="M521.473,536H436v14.652h85.473Z" transform="translate(-197.49 -204.759)" fill="none" stroke="#fff" stroke-width="2"/>
      <path id="Path_291" data-name="Path 291" d="M574.473,490H489v14.652h85.473Z" transform="translate(-207.347 -196.204)" fill="none" stroke="#fff" stroke-width="2"/>
    </g>
    <path id="Path_292" data-name="Path 292" d="M712.555,515.5q-21.109,35.223,0,40.828T748.4,521.9Z" transform="translate(-104.389 -83.819)" fill="#353535" fill-rule="evenodd"/>
    <path id="Path_293" data-name="Path 293" d="M695.981,858.829c95.535,0,172.981-9.476,172.981-21.165S791.516,816.5,695.981,816.5,523,825.976,523,837.665,600.446,858.829,695.981,858.829Z" transform="translate(-71.122 -139.909)" fill="#353535"/>
    <g id="Group_470" data-name="Group 470" transform="translate(337.658 410.404)">
      <path id="Path_294" data-name="Path 294" d="M879.007,766.908l18.687,13.207c.13.093.26.19.383.295a5.128,5.128,0,0,1,.554,7.228,8.078,8.078,0,0,1-8.971,2.307q-31.719-11.89-36.615-17.163l-50.063-43.55-63.494-15.874-4.07,83.031q-7.739.679-11.8.814c-24.421.814-44.227,1.113-57.208,1.314-13.02.2-28.321,0-50.5-.682q-3.1-.1-12.625-1.364l8.53-89.021L559.363,760.7a81.439,81.439,0,0,1-13.812,11.247l-47.631,30.782a52.1,52.1,0,0,1-17.9,7.3l-97.078,19.738q-2.132-17.356,14.245-31.34c9.529-8.136,41.27-13.652,63.9-15.06q3.244-.2,55.934-46a35.813,35.813,0,0,0,3.479-3.471l59.963-68.653A79.771,79.771,0,0,1,637.579,638l31.088-1.158,6.951-31.373h-16.93a22.793,22.793,0,0,1-21.571-30.155l16.875-49.44A53.725,53.725,0,0,1,704.838,489.5h11.384a34.992,34.992,0,0,1,32.917,46.863L711,642.13l103.176,37.764a81.414,81.414,0,0,1,35.586,25.591l28.113,35.142Q914.5,739,917.76,744.7q2.7,4.732,19.162,20.973a5.543,5.543,0,0,1-2.678,9.35,21.165,21.165,0,0,1-17.925-4.177l-4.664-3.76q-25.068,1.366-31.747,0C879.606,767.021,879.306,766.964,879.007,766.908Z" transform="translate(-382.698 -489.5)" fill="#ffcdcd"/>
      <path id="Path_295" data-name="Path 295" d="M682.918,667.541q10.989,18.722,36.631,21.165t37.445-12.21l86.287,17.425-36.224,66.42L788.742,757.9l-16.025,71.615L622.724,839.708l22.5-99.231-22.5,42.139L560,712.951q40.647-39.961,71.928-48.256T682.918,667.541Z" transform="translate(-415.672 -521.423)" fill="#fff9d6" fill-rule="evenodd"/>
    </g>
    <path id="Path_296" data-name="Path 296" d="M809.591,538.581l16.529,3.956q.219,42.128-22.125,36.607-11.171-2.761-12.651-13.59-9.389,7.662-19.543,4.2-20.6-7.031-1.915-41.249l39.956,9.527C809.758,538.212,809.675,538.4,809.591,538.581Z" transform="translate(-115.418 -86.242)" fill="#353535" fill-rule="evenodd"/>
    <g id="Group_471" data-name="Group 471" transform="translate(601.638 402.384)">
      <path id="Path_297" data-name="Path 297" d="M707,507.15l116.406,29.332q-7.238-6.822-6.921-10.414c2.4-27.149-12.661-35.728-43.58-42.44-31.068-6.745-40.548-7.505-53.793,15.527Q717.432,502.077,707,507.15Z" transform="translate(-707 -479.5)" fill="#3c3ca0"/>
      <path id="Path_298" data-name="Path 298" d="M736,499.71l88.322,23.607,2.442-9.361L739.256,487.5Z" transform="translate(-712.393 -480.988)" fill="#26266f" fill-rule="evenodd"/>
    </g>
    <path id="Path_299" data-name="Path 299" d="M726.874,501.247A15.874,15.874,0,1,0,711,485.374,15.873,15.873,0,0,0,726.874,501.247Z" transform="translate(-106.063 -75.249)" fill="#f5cb76"/>
    <path id="Path_300" data-name="Path 300" d="M727.617,498.107c6.968,0,12.617-5.285,12.617-11.8s-5.649-11.8-12.617-11.8S715,479.785,715,486.3,720.649,498.107,727.617,498.107Z" transform="translate(-106.806 -76.179)" fill="#ffeecd"/>
    <path id="Path_301" data-name="Path 301" d="M718.6,537.446c-1.724-4.076-4.222-6-7.6-6V529c4.212,0,7.412,2.313,9.512,6.752,8.169-4.868,15.029-3.092,20.027,5.237a1.221,1.221,0,0,1-2.094,1.257c-4.475-7.458-10.128-8.7-17.581-3.835L703.979,566.98l9.9,1.93a1.221,1.221,0,0,1-.467,2.4l-11.6-2.26a1.221,1.221,0,0,1-.817-1.819Zm9.5,11.5a3.256,3.256,0,1,1,3.256-3.256A3.256,3.256,0,0,1,728.1,548.944ZM711,544.06a3.256,3.256,0,1,1,3.256-3.256A3.256,3.256,0,0,1,711,544.06ZM705.825,585.3c-3.705-1.011-6.031-4.078-5.2-6.85s4.517-4.2,8.222-3.189,6.031,4.078,5.2,6.85S709.531,586.314,705.825,585.3Zm-9.4,10.839a1.221,1.221,0,1,1,2.292.845l-2.849,7.733a1.221,1.221,0,1,1-2.291-.845Zm4.884,1.628a1.221,1.221,0,1,1,2.292.845l-2.849,7.733a1.221,1.221,0,1,1-2.291-.845Zm4.884,1.628a1.221,1.221,0,1,1,2.292.845l-2.849,7.733a1.221,1.221,0,1,1-2.292-.845Z" transform="translate(-102.802 -86.341)" fill="#353535"/>
    <path id="Path_302" data-name="Path 302" d="M783.5,217.281v16.281H610.114V217.281h16.281V201H798.968v16.281Zm-71.634,33.375h87.1v16.281h-87.1ZM514.058,546.961v15.467H426.143V546.961H383V530.681H555.574v16.281ZM979.682,340.2h43.957v16.281H850.252V340.2H807.108V323.918H979.682ZM915.374,524.576h57.8v16.281h-87.1V525.39h-57.8V509.109h87.1Z" transform="translate(-45.435 -25.273)" fill="#f68c20" fill-rule="evenodd"/>
    <path id="Path_303" data-name="Path 303" d="M229.473,186H144v14.652h85.473Z" transform="translate(-0.186 -22.41)" fill="none" stroke="#fff" stroke-width="2"/>
    <path id="Path_304" data-name="Path 304" d="M310.082,361.909v7.671h-7.066v5.754h-9.085V369.58H269v-7.671L293.932,340h9.085v21.9Zm-31.291,0h15.141V349.089Zm54.356,13.93c-14.031,0-20.693-6.46-20.693-18.22,0-11.709,6.662-18.119,20.693-18.119,13.98,0,20.693,6.46,20.693,18.119C353.84,369.328,347.127,375.838,333.147,375.838Zm0-7.621c7.974,0,11.608-3.987,11.608-10.6,0-6.561-3.634-10.5-11.608-10.5s-11.608,3.886-11.608,10.5C321.539,364.281,325.173,368.217,333.147,368.217Zm64.753-6.309v7.671h-7.066v5.754h-9.085V369.58H356.817v-7.671L381.749,340h9.085v21.9Zm-31.291,0h15.141V349.089Z" transform="translate(-23.433 -51.036)" fill="#fff"/>
    <path id="Path_305" data-name="Path 305" d="M786,402.5h7.326v16.281H786Zm183.97,47.214H977.3v16.281H969.97Z" transform="translate(-120.178 -62.774)" fill="#8b8bb5" fill-rule="evenodd"/>
    <path id="Path_306" data-name="Path 306" d="M851.083,841.015H719.21v15.06H707v-50.47a6.105,6.105,0,1,1,12.21,0v23.2H851.083v-23.2a6.105,6.105,0,0,1,12.21,0v42.329l-12.21,1.628Z" transform="translate(-105.388 -136.748)" fill="#ff8484" fill-rule="evenodd"/>
    <path id="Path_307" data-name="Path 307" d="M428.057,880.491A12.708,12.708,0,0,0,419,892.663a1.221,1.221,0,1,0,2.442,0,10.265,10.265,0,0,1,7.316-9.833l12.164-3.649a1.219,1.219,0,0,0,.792-.741c.484-1.29,3.867-3.5,9.941-6.235,5.633-2.535,8.787-2.956,12.583-2.471l.518.067c.2.026.358.045.508.062a1.221,1.221,0,0,0,.27-2.427c-.133-.015-.277-.033-.466-.057l-.52-.067c-4.231-.541-7.839-.059-13.9,2.666-6.134,2.76-9.727,5-10.936,7.014Z" transform="translate(-51.541 -149.322)" fill="#353535"/>
    <path id="Path_308" data-name="Path 308" d="M791,583q24.762,6.43,28.8-9.606c2.044-8.107-2.235-14.8-11.623-12.528q-2.992.723-11.483,11.015Z" transform="translate(-121 -92.182)" fill="#ffcdcd" fill-rule="evenodd"/>
    <path id="Path_309" data-name="Path 309" d="M1008.391,813.979l12.406-1.742a23.2,23.2,0,0,1,18.169,5.229l14.864,12.518a1.223,1.223,0,0,0,1.579-1.868L1040.537,815.6a25.631,25.631,0,0,0-20.074-5.78l-12.414,1.742a1.221,1.221,0,1,0,.342,2.419Z" transform="translate(-161.347 -138.62)" fill="#353535"/>
    <path id="Path_310" data-name="Path 310" d="M707.257,218.095h-70.82v-1.628h86.287V201h1.628v15.467h69.192v1.628H708.885v15.467h-1.628ZM947.395,341.013H860.7a.814.814,0,0,1,0-1.628h42.736V323.918h1.628v15.466h84.659a.814.814,0,0,1,0,1.628h-40.7v15.466h-1.628ZM896.111,525.8a.814.814,0,0,1,0-1.628h29.3a.814.814,0,0,1,0,1.628Zm-417.6,20.351V530.681h1.628v15.466H524.1v1.628H437v-1.628Z" transform="translate(-55.478 -25.271)" fill="#353535"/>
  </g>
</svg>
