<svg xmlns="http://www.w3.org/2000/svg" id="Layer_2" width="53" height="53" viewBox="0 0 53 53">
    <defs>
        <style>
            .cls-2{fill:#18afed}
        </style>
    </defs>
    <g id="camera">
        <path id="Path_28" d="M43.083 13.3h-7.25V9.435A6.248 6.248 0 0 0 29.792 3h-7.25A6.248 6.248 0 0 0 16.5 9.435V13.3H9.25A7.5 7.5 0 0 0 2 21.019v20.592a7.5 7.5 0 0 0 7.25 7.722h33.833a7.5 7.5 0 0 0 7.25-7.722V21.019a7.5 7.5 0 0 0-7.25-7.719zm-21.75-3.865a1.25 1.25 0 0 1 1.208-1.287h7.25A1.25 1.25 0 0 1 31 9.435V13.3h-9.667zM45.5 41.611a2.5 2.5 0 0 1-2.417 2.574H9.25a2.5 2.5 0 0 1-2.417-2.574V21.019a2.5 2.5 0 0 1 2.417-2.575h33.833a2.5 2.5 0 0 1 2.417 2.575z" class="cls-2" transform="translate(-.167 -.167)"/>
        <path id="Path_29" d="M12 10.5a3.5 3.5 0 1 0 3.5 3.5 3.5 3.5 0 0 0-3.5-3.5zm0 5a1.5 1.5 0 1 1 1.5-1.5 1.5 1.5 0 0 1-1.5 1.5z" class="cls-2" transform="translate(13.985 17.318)"/>
    </g>
</svg>
