<svg xmlns="http://www.w3.org/2000/svg" width="58" height="58" viewBox="0 0 58 58">
    <defs>
        <style>
            .cls-3{fill:#2db7ef}
        </style>
    </defs>
    <g id="icon" transform="translate(-399 -2031)">
        <rect id="Rectangle_31" width="58" height="58" fill="#bbf0ff" rx="5" transform="translate(399 2031)"/>
        <g id="Layer_2" transform="translate(413 2045)">
            <g id="camera">
                <path id="Path_28" d="M24.1 8.333h-3.9v-2A3.292 3.292 0 0 0 16.95 3h-3.9A3.292 3.292 0 0 0 9.8 6.333v2H5.9a3.951 3.951 0 0 0-3.9 4V23a3.951 3.951 0 0 0 3.9 4h18.2a3.951 3.951 0 0 0 3.9-4V12.333a3.951 3.951 0 0 0-3.9-4zm-11.7-2a.658.658 0 0 1 .65-.667h3.9a.658.658 0 0 1 .65.667v2h-5.2zM25.4 23a1.317 1.317 0 0 1-1.3 1.333H5.9A1.317 1.317 0 0 1 4.6 23V12.333A1.317 1.317 0 0 1 5.9 11h18.2a1.317 1.317 0 0 1 1.3 1.333z" class="cls-3"/>
                <path id="Path_29" d="M12 10.5a3.5 3.5 0 1 0 3.5 3.5 3.5 3.5 0 0 0-3.5-3.5zm0 5a1.5 1.5 0 1 1 1.5-1.5 1.5 1.5 0 0 1-1.5 1.5z" class="cls-3" transform="translate(3 3.706)"/>
            </g>
        </g>
    </g>
</svg>
