<svg xmlns="http://www.w3.org/2000/svg" id="Layer_2" width="24" height="24" viewBox="0 0 24 24">
    <defs>
        <style>
            .cls-2{fill:#3e9365}
        </style>
    </defs>
    <g id="play-circle">
        <path id="Path_12" d="M12 2a10 10 0 1 0 10 10A10 10 0 0 0 12 2zm0 18a8 8 0 1 1 8-8 8 8 0 0 1-8 8z" class="cls-2"/>
        <path id="Path_13" d="M12.34 7.45a1.7 1.7 0 0 0-1.85-.3 1.6 1.6 0 0 0-1 1.48v6.74a1.6 1.6 0 0 0 1 1.48 1.68 1.68 0 0 0 .69.15 1.74 1.74 0 0 0 1.16-.45L16 13.18a1.6 1.6 0 0 0 0-2.36zm-.84 7.15V9.4l2.81 2.6z" class="cls-2"/>
    </g>
</svg>
