<svg xmlns="http://www.w3.org/2000/svg" id="Layer_2" width="60" height="60" viewBox="0 0 60 60">
    <defs>
        <style>
            .cls-2{fill:#5444a5}
        </style>
    </defs>
    <g id="volume-up">
        <path id="Path_25" d="M20.039 8.738a1.992 1.992 0 1 0-3.1 2.5 7.945 7.945 0 0 1 0 9.415 1.992 1.992 0 0 0 3.1 2.5 11.918 11.918 0 0 0 0-14.42z" class="cls-2" transform="translate(25.841 14.051)"/>
        <path id="Path_26" d="M21.259 5.655a1.617 1.617 0 0 0-2.8.369 3.733 3.733 0 0 0 .258 4c3.226 3.562 5.154 9.016 5.244 14.84-.09 5.824-2.017 11.278-5.244 14.84a3.342 3.342 0 0 0-.71 1.924 3.713 3.713 0 0 0 .452 2.077 1.827 1.827 0 0 0 1.529 1.021 1.673 1.673 0 0 0 1.271-.653c4.146-4.63 6.6-11.693 6.674-19.21-.074-7.516-2.528-14.58-6.674-19.21z" class="cls-2" transform="translate(29.875 5.136)"/>
        <path id="Path_27" d="M28.3 3.341a1.568 1.568 0 0 0-1.986 0L13.438 15.124H3.506c-1.1 0-1.986 1.185-1.986 2.648v18.164c0 1.462.889 2.648 1.986 2.648h9.931l12.733 11.65a1.751 1.751 0 0 0 1.132.45c1.1 0 1.986-1.185 1.986-2.648V5.671a2.912 2.912 0 0 0-.993-2.33zm-2.92 39.718l-10.19-9.32a1.654 1.654 0 0 0-1.132-.45h-8.6v-12.87h8.6a1.654 1.654 0 0 0 1.132-.45L25.316 10.7z" class="cls-2" transform="translate(1.705 3.151)"/>
    </g>
</svg>
