<svg xmlns="http://www.w3.org/2000/svg" width="58" height="58" viewBox="0 0 58 58">
    <defs>
        <style>
            .cls-3{fill:#5fd46d}
        </style>
    </defs>
    <g id="icon" transform="translate(-399 -2031)">
        <rect id="Rectangle_31" width="58" height="58" fill="#cef6d6" rx="5" transform="translate(399 2031)"/>
        <g id="Layer_2" transform="translate(413 2045)">
            <g id="volume-up">
                <path id="Path_25" d="M18.28 8.37a1 1 0 1 0-1.56 1.26 4 4 0 0 1 0 4.74 1 1 0 0 0 1.56 1.26 6 6 0 0 0 0-7.26z" class="cls-3" transform="translate(4.715 2.999)"/>
                <path id="Path_26" d="M19.64 5.329a.814.814 0 0 0-1.41.186 1.879 1.879 0 0 0 .13 2.014A11.526 11.526 0 0 1 21 15a11.526 11.526 0 0 1-2.64 7.471 1.682 1.682 0 0 0-.36.969 1.869 1.869 0 0 0 .228 1.046A.92.92 0 0 0 19 25a.842.842 0 0 0 .64-.329A14.9 14.9 0 0 0 23 15a14.9 14.9 0 0 0-3.36-9.671z" class="cls-3" transform="translate(6)"/>
                <path id="Path_27" d="M15 3.165a.789.789 0 0 0-1 0L7.52 9.1h-5c-.552 0-1 .6-1 1.333v9.145c0 .736.448 1.333 1 1.333h5l6.41 5.866a.881.881 0 0 0 .57.223c.552 0 1-.6 1-1.333V4.338a1.466 1.466 0 0 0-.5-1.173zm-1.47 20L8.4 18.468a.833.833 0 0 0-.57-.227H3.5v-6.478h4.33a.833.833 0 0 0 .57-.227l5.1-4.666z" class="cls-3"/>
            </g>
        </g>
    </g>
</svg>
